<svg width="90" height="89" viewBox="0 0 90 89" fill="none" xmlns="http://www.w3.org/2000/svg">
            <path d="M53.3333 28.3334H14.4444C13.7077 28.3334 13.0012 28.0407 12.4803 27.5198C11.9593 26.9988 11.6667 26.2923 11.6667 25.5556V14.4445C11.6667 13.7078 11.9593 13.0012 12.4803 12.4803C13.0012 11.9593 13.7077 11.6667 14.4444 11.6667H53.3333C54.07 11.6667 54.7766 11.9593 55.2975 12.4803C55.8185 13.0012 56.1111 13.7078 56.1111 14.4445V25.5556C56.1111 26.2923 55.8185 26.9988 55.2975 27.5198C54.7766 28.0407 54.07 28.3334 53.3333 28.3334ZM17.2222 22.7778H50.5555V17.0556H17.2222V22.7778Z" fill="black"/>
            <path d="M53.3333 34.1111H14.4444C13.7077 34.1111 13.0012 34.4037 12.4803 34.9247C11.9593 35.4456 11.6667 36.1521 11.6667 36.8889V47.7778C11.6667 48.5145 11.9593 49.221 12.4803 49.7419C13.0012 50.2629 13.7077 50.5555 14.4444 50.5555H46L56.1111 40.2777V36.8889C56.1111 36.1521 55.8185 35.4456 55.2975 34.9247C54.7766 34.4037 54.07 34.1111 53.3333 34.1111ZM50.5555 45H17.2222V39.4444H50.5555V45Z" fill="black"/>
            <path d="M25.7222 82.5278V82.3611L26.6111 78.5H6.11111V6.1111H61.6667V34.5833L67.2222 29.3333V3.33332C67.2222 2.59661 66.9296 1.89007 66.4086 1.36913C65.8877 0.8482 65.1812 0.555542 64.4444 0.555542H3.33333C2.59662 0.555542 1.89008 0.8482 1.36915 1.36913C0.848215 1.89007 0.555557 2.59661 0.555557 3.33332V81.1111C0.555557 81.8478 0.848215 82.5544 1.36915 83.0753C1.89008 83.5962 2.59662 83.8889 3.33333 83.8889H25.5556C25.5784 83.4318 25.6341 82.9769 25.7222 82.5278Z" fill="black"/>
            <path d="M56.1111 48.25L53.9444 50.4444C54.482 50.3336 54.9747 50.0661 55.3603 49.6755C55.7459 49.2849 56.0072 48.7889 56.1111 48.25Z" fill="black"/>
            <path d="M11.6667 69.8333C11.6667 70.57 11.9593 71.2766 12.4803 71.7975C13.0012 72.3184 13.7077 72.6111 14.4444 72.6111H27.8889L28.7222 69L29.0833 67.4722V67.3333H17.2222V61.6666H34.8333L40.3889 56.1111H14.4444C13.7077 56.1111 13.0012 56.4037 12.4803 56.9247C11.9593 57.4456 11.6667 58.1521 11.6667 58.8889V69.8333Z" fill="black"/>
            <path d="M88.0278 41.3056L78.6667 31.9445C78.2512 31.5279 77.7577 31.1974 77.2143 30.9718C76.6709 30.7463 76.0883 30.6302 75.5 30.6302C74.9117 30.6302 74.3291 30.7463 73.7857 30.9718C73.2423 31.1974 72.7488 31.5279 72.3333 31.9445L34.25 70.25L31.1111 83.6111C30.9936 84.1875 30.991 84.7815 31.1033 85.3589C31.2157 85.9364 31.4409 86.486 31.766 86.9762C32.0912 87.4665 32.5098 87.8878 32.998 88.216C33.4862 88.5442 34.0344 88.7729 34.6111 88.8889C34.8974 88.9177 35.1859 88.9177 35.4722 88.8889C35.8126 88.9444 36.1597 88.9444 36.5 88.8889L49.9722 85.9167L88.0278 47.7778C88.4435 47.3647 88.7734 46.8735 88.9986 46.3324C89.2237 45.7913 89.3396 45.2111 89.3396 44.625C89.3396 44.039 89.2237 43.4587 88.9986 42.9176C88.7734 42.3765 88.4435 41.8853 88.0278 41.4722V41.3056ZM47.1389 80.8611L36.9722 83.1111L39.4444 73.0278L68 44.1667L75.8333 52L47.1389 80.8611ZM78.9722 48.8611L71.1389 41.0278L75.5556 36.6667L83.4444 44.5556L78.9722 48.8611Z" fill="black"/>
</svg>