<svg width="100" height="100" viewBox="0 0 100 100" fill="none" xmlns="http://www.w3.org/2000/svg">
    <path d="M10.7422 87.5L8.69141 93.75H81.25V100H0C0.0651042 99.8047 0.260417 99.2025 0.585938 98.1934C0.911458 97.1842 1.31836 95.9961 1.80664 94.6289C2.29492 93.2617 2.7832 91.7806 3.27148 90.1855C3.75977 88.5905 4.23177 87.1582 4.6875 85.8887C5.14323 84.6191 5.51758 83.5124 5.81055 82.5684C6.10352 81.6244 6.25 81.1849 6.25 81.25V43.75H0V37.5L43.75 15.625V0H62.4512V12.5H50V15.625L93.75 37.5V43.75H87.5V50H81.25V43.75H75V50H68.75V43.75H62.5V50H56.25V43.75H50V87.5H10.7422ZM31.25 81.25V43.75H25V81.25H31.25ZM43.75 81.25V43.75H37.5V81.25H43.75ZM46.875 21.0449L13.9648 37.5H79.7852L46.875 21.0449ZM12.5 43.75V81.25H18.75V43.75H12.5ZM100 96.875C100 97.7214 99.6908 98.4538 99.0723 99.0723C98.4538 99.6908 97.7214 100 96.875 100C96.0286 100 95.2962 99.6908 94.6777 99.0723L80.4688 84.9121C79.1992 85.7585 77.832 86.3932 76.3672 86.8164C74.9023 87.2396 73.4049 87.4674 71.875 87.5C69.7266 87.5 67.7083 87.0931 65.8203 86.2793C63.9323 85.4655 62.2721 84.3587 60.8398 82.959C59.4076 81.5592 58.2845 79.8991 57.4707 77.9785C56.6569 76.0579 56.25 74.0234 56.25 71.875C56.25 69.7266 56.6569 67.7083 57.4707 65.8203C58.2845 63.9323 59.3913 62.2884 60.791 60.8887C62.1908 59.4889 63.8509 58.3659 65.7715 57.5195C67.6921 56.6732 69.7266 56.25 71.875 56.25C74.0234 56.25 76.0417 56.6569 77.9297 57.4707C79.8177 58.2845 81.4616 59.4076 82.8613 60.8398C84.2611 62.2721 85.3841 63.9323 86.2305 65.8203C87.0768 67.7083 87.5 69.7266 87.5 71.875C87.5 73.4049 87.2884 74.9023 86.8652 76.3672C86.4421 77.832 85.791 79.1992 84.9121 80.4688L99.0723 94.6777C99.6908 95.2962 100 96.0286 100 96.875ZM62.5 71.875C62.5 73.1771 62.7441 74.3978 63.2324 75.5371C63.7207 76.6764 64.388 77.6693 65.2344 78.5156C66.0807 79.362 67.0736 80.0293 68.2129 80.5176C69.3522 81.0059 70.5729 81.25 71.875 81.25C73.1771 81.25 74.3978 81.0059 75.5371 80.5176C76.6764 80.0293 77.6693 79.362 78.5156 78.5156C79.362 77.6693 80.0293 76.6764 80.5176 75.5371C81.0059 74.3978 81.25 73.1771 81.25 71.875C81.25 70.5729 81.0059 69.3522 80.5176 68.2129C80.0293 67.0736 79.362 66.0807 78.5156 65.2344C77.6693 64.388 76.6764 63.7207 75.5371 63.2324C74.3978 62.7441 73.1771 62.5 71.875 62.5C70.5729 62.5 69.3522 62.7441 68.2129 63.2324C67.0736 63.7207 66.0807 64.388 65.2344 65.2344C64.388 66.0807 63.7207 67.0736 63.2324 68.2129C62.7441 69.3522 62.5 70.5729 62.5 71.875Z" fill="black"/>
</svg>