<svg width="74" height="74" viewBox="0 0 74 74" fill="none" xmlns="http://www.w3.org/2000/svg">
        <path d="M52.5833 46.3333H49.2917L48.125 45.2083C52.3495 40.3084 54.6713 34.0529 54.6667 27.5833C54.6667 22.2268 53.0783 16.9905 50.1023 12.5367C47.1264 8.08282 42.8805 4.61148 37.9477 2.56161C32.9989 0.511735 27.5533 -0.0246055 22.2980 1.02041C17.046 2.06543 12.2202 4.64486 8.43254 8.43254C4.64486 12.2202 2.06543 17.046 1.02041 22.2980C-0.0246055 27.5533 0.511735 32.9989 2.56161 37.9477C4.61148 42.8805 8.08282 47.1264 12.5367 50.1023C16.9905 53.0783 22.2268 54.6667 27.5833 54.6667C34.2917 54.6667 40.4583 52.2083 45.2083 48.125L46.3333 49.2917V52.5833L67.1667 73.375L73.375 67.1667L52.5833 46.3333ZM27.5833 46.3333C17.2083 46.3333 8.83335 37.9583 8.83335 27.5833C8.83335 17.2083 17.2083 8.83335 27.5833 8.83335C37.9583 8.83335 46.3333 17.2083 46.3333 27.5833C46.3333 37.9583 37.9583 46.3333 27.5833 46.3333Z" fill="black"/>
</svg>